# xmcd
#
# Track frame offsets: 
#        150
#        22049
#        42432
#        69388
#        91879
#        112044
#        130736
#        150531
#        176893
#        192460
#        216464
#
# Disc length: 3110 seconds
#
# Revision: 0
# Processed by: cddbd v1.5.2PL0 Copyright (c) Steve Scherf et al.
# Submitted via: ExactAudioCopy v1.3
#
DISCID=a00c240b
DTITLE=Coyote Kings and Mush - Nasty Habits and Dirty Little Secrets
DYEAR=2013
DGENRE=Rockin' Blues
TTITLE0=Nasty Habit
TTITLE1=Best You Couldn't Do
TTITLE2=Hard To Be A Man
TTITLE3=Baby Wake Up
TTITLE4=Baby's Gone
TTITLE5=My Rider
TTITLE6=That Hot Daddy
TTITLE7=Afternoon Sun
TTITLE8=Scary Proposition
TTITLE9=Walkin' In The Fog
TTITLE10=Am I Gettin' Wise
EXTD=
EXTT0=
EXTT1=
EXTT2=
EXTT3=
EXTT4=
EXTT5=
EXTT6=
EXTT7=
EXTT8=
EXTT9=
EXTT10=
PLAYORDER=
